<?xml version="1.0" encoding="UTF-8" standalone="no"?>
<!-- Created with Inkscape (http://www.inkscape.org/) -->

<svg
   version="1.1"
   id="svg1"
   width="1408"
   height="768"
   viewBox="0 0 1408 768"
   sodipodi:docname="logo_02.svg"
   inkscape:version="1.4.4 (dcaf3e7, 2026-05-05)"
   xmlns:inkscape="http://www.inkscape.org/namespaces/inkscape"
   xmlns:sodipodi="http://sodipodi.sourceforge.net/DTD/sodipodi-0.dtd"
   xmlns="http://www.w3.org/2000/svg"
   xmlns:svg="http://www.w3.org/2000/svg">
  <defs
     id="defs1" />
  <sodipodi:namedview
     id="namedview1"
     pagecolor="#ffffff"
     bordercolor="#111111"
     borderopacity="1"
     inkscape:showpageshadow="0"
     inkscape:pageopacity="0"
     inkscape:pagecheckerboard="1"
     inkscape:deskcolor="#d1d1d1"
     showgrid="false"
     inkscape:zoom="0.79758523"
     inkscape:cx="704"
     inkscape:cy="384.28495"
     inkscape:window-width="1920"
     inkscape:window-height="1009"
     inkscape:window-x="1912"
     inkscape:window-y="-8"
     inkscape:window-maximized="1"
     inkscape:current-layer="g1" />
  <g
     inkscape:groupmode="layer"
     inkscape:label="Image"
     id="g1">
    <path
       style="fill:#000000"
       d="m 460.07334,621.18818 c -8.37995,-1.29008 -12.33426,-11.28176 -7.42817,-18.76939 3.01441,-4.60058 11.50349,-5.84507 17.00174,-2.49245 5.92689,3.61401 6.71108,13.72475 1.43484,18.49968 -2.21016,2.00016 -7.4378,3.31185 -11.00841,2.76216 z m 8.67666,-5.47743 c 1.61712,-1.48011 2.25,-3.18767 2.25,-6.07061 C 471,604.1681 467.98604,601 462.78023,601 c -9.69147,0 -12.34059,12.69036 -3.45149,16.53402 3.66018,1.58267 6.24702,1.08205 9.42126,-1.82327 z m 37.37953,4.74773 c -2.7326,-1.18632 -3.14873,-1.73042 -2.19881,-2.875 0.99453,-1.19834 1.56751,-1.20639 3.79017,-0.0533 1.82297,0.94577 3.17459,1.0609 4.44881,0.37896 1.53854,-0.8234 1.8303,-2.24917 1.8303,-8.94436 V 601 h -4 c -2.88889,0 -4,-0.41667 -4,-1.5 0,-1.15152 1.27778,-1.5 5.5,-1.5 h 5.5 l -0.0153,9.75 c -0.0163,10.3991 -0.2721,11.31233 -3.66895,13.1003 -2.71242,1.4277 -3.03565,1.41008 -7.18621,-0.39182 z m 69.99354,0.45754 c -1.85732,-0.39344 -4.55732,-1.89572 -6,-3.33841 -2.20165,-2.20164 -2.62307,-3.51622 -2.62307,-8.18237 0,-5.0152 0.31962,-5.84488 3.26578,-8.47727 2.70075,-2.41312 4.14542,-2.91797 8.35,-2.91797 4.44872,0 5.5092,0.42498 8.48422,3.4 2.77421,2.77421 3.4,4.16377 3.4,7.54966 0,8.98049 -6.03953,13.83842 -14.87693,11.96636 z m 8.61105,-4.5328 c 4.08074,-2.57274 4.20398,-9.44512 0.24044,-13.40866 -1.2779,-1.2779 -3.32432,-1.97456 -5.80025,-1.97456 -9.74232,0 -11.83507,13.33859 -2.67431,17.04532 2.28282,0.92371 5.00387,0.37445 8.23412,-1.6621 z m 16.67859,4.57865 C 597.40266,620.12705 596,619.21464 596,617.44098 c 0,-1.58194 1.56674,-1.95103 2.42017,-0.57014 0.90773,1.46873 6.43478,2.13481 9.1496,1.10263 1.87409,-0.71252 2.48254,-1.57685 2.24957,-3.19559 -0.2474,-1.71905 -1.44569,-2.53131 -5.31934,-3.60572 -5.99939,-1.664 -8.5,-3.67248 -8.5,-6.82715 0,-3.80406 3.37119,-6.34501 8.41821,-6.34501 5.44969,0 7.58179,0.76321 7.58179,2.71398 0,1.01981 -0.56021,1.28327 -1.75,0.82298 -4.42228,-1.71084 -6.90169,-1.63959 -9.25493,0.26595 -2.08155,1.68553 -2.23881,2.19848 -1.09615,3.5753 0.73373,0.88409 3.19414,2.10253 5.46757,2.70764 C 610.65471,609.4934 613,611.61768 613,615 c 0,4.71394 -5.06462,7.31977 -11.58729,5.96187 z m 128.9202,-0.0839 C 725.42838,619.49634 722,614.74243 722,609.32327 c 0,-3.81078 0.53556,-5.05883 3.4,-7.92327 2.99487,-2.99487 4.01961,-3.4 8.6,-3.4 4.58039,0 5.60513,0.40513 8.6,3.4 2.69875,2.69875 3.39696,4.19406 3.38526,7.25 -0.0339,8.84421 -7.35663,14.56491 -15.65235,12.22797 z m 11.37734,-7.39654 C 744.71917,607.17165 740.90671,601 734,601 c -6.95313,0 -10.7191,6.17181 -7.66891,12.56812 3.02368,6.34071 12.33918,6.28821 15.37916,-0.0867 z m 203.4471,7.49874 c -4.12926,-0.9456 -5.96576,-2.57176 -4.52808,-4.00944 0.7057,-0.7057 1.94747,-0.55045 3.95,0.49384 3.86478,2.01541 5.71943,1.92874 8.55995,-0.40006 2.09911,-1.72096 2.19452,-2.10225 0.86078,-3.44009 -0.825,-0.82753 -3.975,-2.31906 -7,-3.31451 -5.21978,-1.7177 -5.51552,-1.99613 -5.8047,-5.46489 -0.23972,-2.87553 0.18093,-3.99513 1.97251,-5.25 2.4867,-1.74176 10.42972,-2.13513 12.80323,-0.63408 2.38842,1.51048 0.32519,2.43726 -4.81816,2.16428 -8.81121,-0.46767 -9.37497,4.59501 -0.78425,7.0427 5.46487,1.55707 7.63137,3.53411 7.63137,6.96401 0,4.55041 -6.19367,7.37086 -12.84265,5.84824 z M 481,609.5 V 598 h 6.77749 c 7.9779,0 11.22251,1.69327 11.22251,5.8567 0,1.50882 -0.53831,3.28161 -1.19625,3.93955 -0.92834,0.92834 -0.82862,1.47705 0.44526,2.45 0.90284,0.68956 1.92505,2.43193 2.27158,3.87192 0.50011,2.0782 0.0711,3.05785 -2.08013,4.75 C 496.2316,620.60566 494.3679,621 488.36514,621 H 481 Z m 15.5,5 c 0,-2.98158 -0.0384,-3.00183 -6.25,-3.29772 L 484,610.90457 v 3.59543 3.59543 l 6.25,-0.29771 c 6.21162,-0.29589 6.25,-0.31614 6.25,-3.29772 z m -1.19385,-8.61408 C 497.35347,602.62103 495.43755,601 489.53138,601 H 484 v 3.55226 3.55226 l 5.14701,-0.30226 c 3.39971,-0.19965 5.4906,-0.8502 6.15914,-1.91634 z M 525,609.5 V 598 h 8 c 6.44444,0 8,0.29167 8,1.5 0,1.17949 -1.38889,1.5 -6.5,1.5 H 528 v 3.5 3.5 h 6 c 4.66667,0 6,0.33333 6,1.5 0,1.16667 -1.33333,1.5 -6,1.5 h -6 v 3.5 3.5 h 7 c 5.55556,0 7,0.30952 7,1.5 0,1.21569 -1.61111,1.5 -8.5,1.5 H 525 Z m 28,1.5 v -10 h -4 c -2.88889,0 -4,-0.41667 -4,-1.5 0,-1.22807 1.72222,-1.5 9.5,-1.5 7.77778,0 9.5,0.27193 9.5,1.5 0,1.08333 -1.11111,1.5 -4,1.5 h -4 v 10 c 0,8.22222 -0.26667,10 -1.5,10 -1.23333,0 -1.5,-1.77778 -1.5,-10 z m 76,-1.5 V 598 h 6.56574 c 7.54744,0 10.12619,1.05951 11.52343,4.73453 C 649.57577,609.2748 645.15507,614 636.54966,614 632.01672,614 632,614.01286 632,617.5 c 0,2.44444 -0.45238,3.5 -1.5,3.5 -1.24638,0 -1.5,-1.94444 -1.5,-11.5 z m 14.68835,-1.49065 c 2.03251,-4.09559 -0.27101,-6.44243 -6.69052,-6.81634 l -5.27063,-0.30699 0.6364,3.18199 c 0.35002,1.75009 0.6364,4.0504 0.6364,5.11178 0,1.67717 0.61869,1.88989 4.72616,1.625 3.8799,-0.25021 4.94748,-0.75076 5.96219,-2.79544 z M 654,609.5 V 598 h 8 c 6.44444,0 8,0.29167 8,1.5 0,1.17949 -1.38889,1.5 -6.5,1.5 H 657 v 3.5 3.5 h 6.08333 c 8.07801,0 7.72908,2.36935 -0.41233,2.7999 L 657,611.09981 v 3.4044 3.40441 l 6.6703,0.29569 c 4.22318,0.18721 6.82183,0.75428 7.08334,1.54569 0.30894,0.93499 -1.75002,1.25 -8.17031,1.25 H 654 Z m 23,0 V 598 h 6.36514 c 4.92525,0 6.96119,0.46885 9,2.07258 3.3801,2.65878 3.63175,8.23738 0.52097,11.54865 l -2.11389,2.25014 2.11389,2.96868 c 2.50862,3.52303 2.60402,4.15995 0.62308,4.15995 -0.81994,0 -2.50744,-1.56943 -3.75,-3.48762 -1.91483,-2.95602 -2.83079,-3.48951 -6.00919,-3.5 -3.62141,-0.012 -3.75,0.10764 -3.75,3.48762 0,2.44444 -0.45238,3.5 -1.5,3.5 -1.24638,0 -1.5,-1.94444 -1.5,-11.5 z m 13.42857,-0.0714 c 1.86505,-1.86505 2.05418,-5.54582 0.37143,-7.22857 -0.66,-0.66 -3.36,-1.2 -6,-1.2 H 680 v 5 5 h 4.42857 c 2.69264,0 5.04455,-0.61598 6,-1.57143 z m 11.10978,10.22313 c -3.2494,-2.37602 -0.93662,-3.64725 3.47953,-1.91254 5.04897,1.98329 9.30838,0.55194 8.8004,-2.95733 -0.24699,-1.70634 -1.51247,-2.54408 -5.6501,-3.74032 -8.14894,-2.35598 -10.51645,-7.0492 -5.53332,-10.96893 3.22551,-2.53719 11.44251,-2.88921 13.36514,-0.57258 1.40306,1.69058 1.50098,1.66029 -6,1.85629 -5.14476,0.13443 -5.5,0.30339 -5.5,2.61593 0,2.12811 0.83262,2.75446 5.98189,4.5 4.74089,1.6071 6.18023,2.59528 6.93794,4.76328 0.79622,2.27818 0.56114,3.15585 -1.4062,5.25 -1.92852,2.05281 -3.30502,2.5145 -7.49681,2.5145 -2.82401,0 -5.96432,-0.60673 -6.97847,-1.3483 z M 752,609.5 c 0,-9.16543 0.28291,-11.5 1.39363,-11.5 0.76649,0 4.47899,3.82658 8.25,8.50351 l 6.85637,8.50351 0.28893,-8.50351 c 0.22628,-6.65947 0.60578,-8.50351 1.75,-8.50351 1.19673,0 1.46107,2.08064 1.46107,11.5 0,9.48447 -0.25929,11.5 -1.47942,11.5 -0.81369,0 -4.52619,-3.80984 -8.25,-8.46631 l -6.77058,-8.46631 -0.28893,8.46631 C 754.98491,619.16053 754.60469,621 753.46107,621 752.26434,621 752,618.91936 752,609.5 Z m 25.52031,9.436 c 0.3603,-1.1352 2.62589,-6.3102 5.03464,-11.5 3.299,-7.10789 4.8523,-9.436 6.29567,-9.436 1.05386,0 2.14331,0.7875 2.42098,1.75 0.27768,0.9625 2.56542,6.1375 5.08388,11.5 3.8031,8.09786 4.28803,9.74893 2.86177,9.74368 -0.94449,-0.003 -2.48382,-1.35348 -3.42074,-3 C 794.2273,615.23598 793.65784,615 788.57219,615 c -5.12284,0 -5.63266,0.21627 -7.07219,3 -1.80098,3.48272 -5.02894,4.24192 -3.97969,0.936 z m 15.4345,-7.186 c -0.0248,-0.6875 -1.09057,-3.2489 -2.36827,-5.692 l -2.32309,-4.442 -2.13172,4.81912 c -1.17245,2.65051 -2.13173,5.21191 -2.13173,5.692 0,0.48008 2.025,0.87288 4.5,0.87288 2.95743,0 4.48451,-0.42849 4.45481,-1.25 z M 805,609.5 c 0,-10.83333 0.11594,-11.5 2,-11.5 1.86667,0 2,0.66667 2,10 v 10 h 6 c 4.66667,0 6,0.33333 6,1.5 0,1.20833 -1.55556,1.5 -8,1.5 h -8 z m 21,0 c 0,-9.55556 0.25362,-11.5 1.5,-11.5 1.24638,0 1.5,1.94444 1.5,11.5 0,9.55556 -0.25362,11.5 -1.5,11.5 -1.24638,0 -1.5,-1.94444 -1.5,-11.5 z m 9,10.56648 c 0,-0.51344 3.15,-4.78709 7,-9.497 3.85,-4.70991 7,-8.78983 7,-9.06648 0,-0.27665 -2.925,-0.503 -6.5,-0.503 -5.11111,0 -6.5,-0.32051 -6.5,-1.5 0,-1.22222 1.66667,-1.5 9,-1.5 6.65836,0 9,0.33393 9,1.28343 0,0.70589 -3.11297,5.09339 -6.91772,9.75 l -6.91771,8.46657 7.08906,0.5 c 4.40077,0.31039 7.2453,0.97402 7.50105,1.75 0.31133,0.94459 -2.05162,1.25 -9.67135,1.25 C 839.50649,621 835,620.58279 835,620.06648 Z M 857.93457,618.75 c 0.48678,-1.2375 2.6988,-6.3 4.91559,-11.25 5.57112,-12.44007 6.50859,-12.38766 12.57716,0.70312 2.62536,5.66329 5.00137,10.85938 5.28002,11.54688 0.29891,0.73748 -0.26737,1.25 -1.38111,1.25 -1.1792,0 -2.31278,-1.12603 -3.02013,-3 -1.08976,-2.8871 -1.36471,-3 -7.3061,-3 -5.94139,0 -6.21634,0.1129 -7.3061,3 -0.66602,1.76449 -1.85557,3 -2.88839,3 -1.41662,0 -1.58495,-0.43486 -0.87094,-2.25 z m 14.47014,-9.5 c -0.89217,-2.0625 -1.8507,-4.5375 -2.13005,-5.5 -0.8281,-2.85316 -1.8894,-2.0357 -3.8888,2.99532 -1.03722,2.60992 -2.03586,5.08492 -2.21919,5.5 -0.18334,0.41507 1.9602,0.75468 4.76342,0.75468 h 5.09675 z M 886,609.5 V 598 h 6.54966 c 7.64127,0 11.75972,1.76381 13.93341,5.96727 2.96891,5.74124 0.96915,12.71328 -4.45034,15.5158 C 900.28668,620.38599 896.4482,621 892.54966,621 H 886 Z m 15.64424,6.12959 c 3.62136,-3.11496 3.79026,-8.47373 0.38145,-12.10225 C 900.06267,601.43781 898.72881,601 894.32569,601 H 889 v 8.5 8.5 h 4.94424 c 3.76005,0 5.60426,-0.56773 7.7,-2.37041 z m 14.12154,2.45244 C 912.80591,615.43739 912.5,614.6335 912.5,609.5 c 0,-5.1335 0.30591,-5.93739 3.26578,-8.58203 2.70075,-2.41312 4.14542,-2.91797 8.35,-2.91797 4.44872,0 5.5092,0.42498 8.48422,3.4 2.90213,2.90213 3.4,4.08824 3.4,8.1 0,4.01176 -0.49787,5.19787 -3.4,8.1 -2.97502,2.97502 -4.0355,3.4 -8.48422,3.4 -4.20458,0 -5.64925,-0.50485 -8.35,-2.91797 z m 11.11538,-0.19045 c 4.06803,-1.41812 6.51799,-5.95038 5.66742,-10.48432 -1.64191,-8.75215 -14.93489,-8.68488 -17.13642,0.0867 -1.23229,4.90983 1.63146,8.92007 8.18862,11.46688 0.0554,0.0215 1.5316,-0.45965 3.28038,-1.06928 z M 431,571.67166 c -11.83409,-2.76496 -20.99461,-9.89581 -25.59524,-19.92418 -2.51191,-5.47542 -2.86721,-7.42148 -2.87511,-15.74748 -0.008,-8.1712 0.35813,-10.28609 2.61583,-15.12001 7.7216,-16.53256 26.32356,-24.91926 46.0553,-20.76405 6.57704,1.38502 14.98969,5.39345 17.96392,8.55937 l 2.24572,2.39046 -5.02247,5.02247 -5.02246,5.02247 -5.19489,-3.49591 c -12.53387,-8.43467 -28.49002,-4.83698 -34.6825,7.81999 -2.40878,4.92338 -2.69064,6.45316 -2.23496,12.13005 0.6224,7.75375 3.67243,13.03399 9.9152,17.16526 5.20592,3.44511 16.19461,4.39857 22.12693,1.91989 L 455,555.10205 V 545.05103 535 l 7.75,-0.002 7.75,-0.002 -0.5,14.72316 -0.5,14.72315 -4,2.28092 c -9.0361,5.15263 -24.27212,7.33788 -34.5,4.94821 z m 54,-35.785 v -36.11335 l 20.75,0.47613 c 22.78249,0.52277 26.88679,1.35393 33.46621,6.77725 5.33002,4.39345 7.78379,10.217 7.78379,18.47331 0,10.07465 -3.12578,15.74234 -11.85744,21.5 l -2.27479,1.5 7.36439,10.5191 c 4.05042,5.7855 7.70673,11.073 8.12513,11.75 0.58156,0.94098 -1.43929,1.2309 -8.57978,1.2309 h -9.34052 L 523.4685,561.53105 516.5,551.06209 508.75,551.03105 501,551 v 10.5 10.5 h -8 -8 z m 39.99805,-0.60904 c 3.95872,-2.57487 4.93611,-4.4454 4.97015,-9.51184 0.0258,-3.84232 -0.51751,-5.34949 -2.88391,-8 L 524.16858,514.5 512.58429,514.16395 501,513.82789 v 11.41939 c 0,6.28066 0.33238,11.75177 0.73863,12.15801 1.37009,1.3701 20.58403,-0.38752 23.25942,-2.12767 z m 27.2906,34.97238 c 0.28705,-0.9625 4.20862,-9.85 8.71461,-19.75 4.50598,-9.9 9.67523,-21.375 11.48722,-25.5 1.81199,-4.125 5.13043,-11.4552 7.37433,-16.28934 l 4.0798,-8.78933 8.7134,0.28933 8.7134,0.28934 4.9553,11 c 2.72541,6.05 9.8772,21.575 15.89286,34.5 6.01566,12.925 11.17535,24.0625 11.46598,24.75 0.39869,0.9431 -1.52339,1.24624 -7.82856,1.23469 -4.59635,-0.008 -8.82332,-0.34592 -9.39328,-0.75 -0.56996,-0.40408 -2.40143,-3.88469 -4.06993,-7.73469 l -3.03364,-7 -17.05836,-0.27309 -17.05836,-0.27309 -3.23411,8.02309 L 568.7752,572 h -8.50423 c -7.63143,0 -8.45067,-0.17961 -7.98232,-1.75 z M 603,542.92142 c 0,-2.24094 -10.41789,-25.90097 -11.08637,-25.17821 -1.34567,1.45495 -10.69204,25.14505 -10.13869,25.6984 1.09047,1.09046 21.22506,0.597 21.22506,-0.52019 z m 39,-6.90401 v -36.23134 l 22.75,0.47959 c 24.12568,0.5086 28.2452,1.17653 33.25486,5.39189 C 702.29123,509.26429 704,513.06723 704,519 c 0,5.84635 -1.76407,9.86317 -5.73002,13.0474 -1.83292,1.47163 -2.33462,2.37959 -1.48303,2.68394 2.50644,0.89581 7.30696,5.54941 8.91047,8.63778 2.30882,4.44679 2.13774,13.51612 -0.33482,17.74972 -2.26598,3.8799 -7.02779,7.36881 -12.24497,8.97172 -1.9897,0.61131 -14.30513,1.34699 -27.36763,1.63484 L 642,572.24876 Z m 45.28032,20.71994 c 2.99585,-1.96457 4.25455,-5.47013 3.31221,-9.2247 -1.20793,-4.81277 -4.74853,-5.97988 -19.29634,-6.36076 L 658,540.80377 V 550 v 9.19623 l 13.29619,-0.34812 c 10.59984,-0.27752 13.84129,-0.70556 15.98413,-2.11076 z m -3.96458,-28.90069 c 5.25105,-2.79673 6.18483,-8.07665 2.10675,-11.91235 -2.39399,-2.2517 -3.46201,-2.44792 -15,-2.75587 L 658,512.83689 V 520.91844 529 h 11.56574 c 6.87473,0 12.45167,-0.47185 13.75,-1.16334 z M 740,571.08474 c 0,-0.50339 4.75887,-11.19089 10.57526,-23.75 5.81639,-12.55911 12.86429,-27.78474 15.66199,-33.83474 2.7977,-6.05 5.51894,-11.5625 6.04719,-12.25 0.52825,-0.6875 2.65408,-1.25 4.72406,-1.25 3.26762,0 3.96397,0.42831 5.28387,3.25 0.83614,1.7875 6.10965,13.13981 11.71891,25.22735 5.60927,12.08754 12.40143,26.36687 15.09369,31.73183 2.69227,5.36497 4.89503,10.23853 4.89503,10.83015 0,1.64346 -8.14715,0.71922 -9.16167,-1.03933 -0.47595,-0.825 -2.44791,-4.9875 -4.38213,-9.25 L 796.93944,553 h -20.23875 -20.23874 l -4.35776,9.5 -4.35775,9.5 h -3.87322 C 741.74295,572 740,571.58813 740,571.08474 Z M 778.47818,546 h 15.31461 l -8.29637,-18.06665 c -4.56301,-9.93665 -8.49716,-18.26742 -8.74255,-18.51282 C 776.23056,508.89723 760,544.41442 760,546.08287 c 0,0.62211 0.7118,0.85796 1.58179,0.52412 C 762.45177,546.27314 770.05515,546 778.47818,546 Z m 46.23608,25.38093 C 824.32142,570.98808 824,554.99167 824,535.83333 V 501 h 18.37427 c 19.88108,0 23.9964,0.75713 30.31629,5.57755 6.38294,4.8685 9.69446,15.58747 7.42022,24.01833 -1.57769,5.84867 -6.28958,11.85783 -11.00334,14.03276 -2.23071,1.02925 -4.06151,2.09636 -4.06844,2.37136 -0.007,0.275 3.80647,5.80268 8.47421,12.28373 4.66773,6.48106 8.48679,11.99356 8.48679,12.25 C 882,571.79018 880.03253,572 877.62785,572 H 873.2557 L 864.87785,560.25 856.5,548.5 h -12 -12 l -0.15014,11.5 -0.15013,11.5 -3.38561,0.29759 c -1.86208,0.16368 -3.70702,-0.0238 -4.09986,-0.41666 z M 863.48323,539 c 6.20538,-3.11313 8.77805,-7.28185 8.84431,-14.33121 0.1237,-13.15868 -8.35032,-18.08873 -30.00406,-17.45589 L 832.5,507.5 l -0.27646,15.95986 c -0.15205,8.77792 -0.0364,16.58553 0.25708,17.35024 0.42697,1.11266 3.07884,1.32043 13.27646,1.04014 11.18549,-0.30743 13.35197,-0.65579 17.72615,-2.85024 z M 911,539.5 V 507 H 898.5 886 v -3 -3 h 29 29 v 2.96922 2.96922 L 931.75,507.21922 919.5,507.5 919.23615,539.75 918.97229,572 H 914.98615 911 Z m 44.66667,31.83333 c -0.92502,-0.92501 -0.84323,-70.14176 0.0833,-70.52766 0.4125,-0.1718 11.6625,-0.16892 25,0.006 l 24.25,0.31876 v 2.91429 2.91429 L 984.25,507.22971 963.5,507.5 v 12 12 l 18.8117,0.27229 18.8117,0.27229 -0.3117,3.22771 -0.3117,3.22771 -18.77971,0.27217 -18.77971,0.27218 0.27971,12.72782 L 963.5,564.5 l 21.25,0.26989 21.25,0.26989 V 568.51989 572 h -24.83333 c -13.65834,0 -25.13334,-0.3 -25.5,-0.66667 z M 633,472.5 V 469 h -38 -38 v 3 3 h -8.5 -8.5 v -8.5 -8.5 h 8.5 8.5 v 3 3 l 26.25,-0.0744 26.25,-0.0744 -6.7278,-2.35237 c -8.23303,-2.87867 -21.00927,-9.20269 -27.46931,-13.59685 -6.12119,-4.16366 -18.08813,-13.90315 -21.17986,-17.23757 -1.85179,-1.99714 -3.00918,-2.43711 -5.23832,-1.99128 -5.91533,1.18306 -11.12287,-5.26966 -8.79272,-10.89515 1.40621,-3.39488 3.67625,-4.77791 7.84227,-4.77791 4.31847,0 7.06574,3.08371 7.06574,7.93103 0,3.64323 0.54812,4.40907 7.48678,10.46061 19.65197,17.13941 43.2106,28.42757 65.01443,31.15178 L 633,463.23045 V 460.11522 457 h 9.5 9.5 v 3 c 0,3.63006 0.0692,3.63512 13.17524,0.96429 21.42697,-4.36654 40.88208,-14.77049 58.54022,-31.30538 5.03748,-4.71703 5.19563,-5.02847 4.63403,-9.12573 -0.50807,-3.70677 -0.2198,-4.63229 2.28454,-7.33482 C 736.91133,406.42427 747,410.00064 747,419 c 0,5.90484 -3.32821,9 -9.67764,9 -4.47394,0 -5.1409,0.36522 -10.79545,5.91149 C 714.95774,445.2591 699.3983,454.97888 683,461.10218 l -7.5,2.80058 25.75,0.0486 L 727,464 v -3 -3 h 9 9 v 8.5 8.5 h -9 -9 v -3 -3 H 689.5 652 v 3.5 3.5 h -9.5 -9.5 z m 14,-6 V 462 h -4.5 -4.5 v 4.5 4.5 h 4.5 4.5 z m -95,0 c 0,-3.33333 -0.16667,-3.5 -3.5,-3.5 -3.33333,0 -3.5,0.16667 -3.5,3.5 0,3.33333 0.16667,3.5 3.5,3.5 3.33333,0 3.5,-0.16667 3.5,-3.5 z m 188,0 c 0,-3.41667 -0.0952,-3.5 -4,-3.5 -3.90476,0 -4,0.0833 -4,3.5 0,3.41667 0.0952,3.5 4,3.5 3.90476,0 4,-0.0833 4,-3.5 z m 1.5,-47.5 c 0,-1.24083 -0.97951,-2.90643 -2.1767,-3.70133 -1.95963,-1.30114 -2.38345,-1.23852 -4.25,0.62803 C 733.93299,417.06701 733,418.45 733,419 c 0,0.55 0.93299,1.93299 2.0733,3.0733 1.86655,1.86655 2.29037,1.92917 4.25,0.62803 1.19719,-0.7949 2.1767,-2.4605 2.1767,-3.70133 z m -111,26.9162 c -8.22106,-0.96812 -21.89257,-4.78829 -30.0552,-8.39819 -7.691,-3.40133 -20.50444,-12.03211 -28.10208,-18.9288 C 568.95621,415.51515 565.51965,413 564.70592,413 563.33796,413 541.9899,399.88814 499.25,372.79735 483.48573,362.80513 482,361.61705 482,359.00313 c 0,-3.65646 1.52061,-5.11685 11.15922,-10.71726 l 7.88197,-4.57974 -9.2706,-6.10306 c -8.15893,-5.37124 -9.30772,-6.48677 -9.58021,-9.30289 -0.36926,-3.81624 -3.25291,-1.83053 36.43002,-25.08606 15.88378,-9.30843 35.83835,-21.0396 44.3435,-26.06927 C 571.46904,272.11518 578.82969,268 579.32089,268 c 0.4912,0 0.61994,0.7118 0.2861,1.58179 -0.33385,0.86998 -0.60699,3.23726 -0.60699,5.26062 0,3.52625 -0.32145,3.86965 -7.75,8.27933 -4.2625,2.53028 -23.19601,13.73121 -42.07448,24.89096 l -34.32447,20.29046 3.32447,1.98653 c 1.82847,1.09259 5.2553,3.31549 7.61519,4.93978 2.35988,1.6243 4.86525,2.73279 5.56748,2.46332 0.70223,-0.26947 5.40706,-3.20203 10.45516,-6.51679 14.66966,-9.63261 25.67273,-14.04151 30.5448,-12.23921 2.05727,0.76103 2.06034,0.79407 0.12543,1.34703 -1.09097,0.31178 -3.55858,0.87945 -5.48358,1.26149 -5.70863,1.13295 -15.64311,6.03867 -23.83301,11.76892 -4.21685,2.95041 -8.30916,5.57575 -9.09404,5.83409 -0.95194,0.31333 -0.23403,1.20704 2.15628,2.68434 l 3.58334,2.21462 7.42752,-5.329 c 4.08514,-2.93095 9.79659,-6.34815 12.69211,-7.59377 5.2984,-2.27931 22.76445,-4.83863 25.59875,-3.75101 2.04179,0.78351 1.84315,2.62977 -0.28095,2.61119 -1.49649,-0.0131 -1.5327,-0.15653 -0.25,-0.99012 1.13675,-0.73874 0.7735,-0.93399 -1.5,-0.80629 -3.95323,0.22206 -5.01883,0.85323 -3.35676,1.98825 0.87365,0.59662 -0.63784,0.75359 -4.24483,0.44084 -8.2661,-0.71673 -13.98831,1.43927 -24.89841,9.38116 -3.575,2.60238 -7.09762,4.91653 -7.82805,5.14256 -0.73043,0.22602 2.07577,2.56719 6.236,5.20259 4.4974,2.84899 8.07652,4.49313 8.82806,4.05533 0.98182,-0.57194 13.9814,-10.34081 23.42496,-17.60329 0.70391,-0.54133 1.42213,-0.47027 1.82433,0.1805 0.36485,0.59033 0.0879,0.94968 -0.61552,0.79856 -0.70338,-0.15113 -1.29933,0.27501 -1.32433,0.94698 -0.0421,1.13119 -13.22163,12.68279 -18.25147,15.99704 -1.21332,0.79948 -2.78832,1.12641 -3.5,0.72653 -4.06311,-2.28299 2.92205,3.30517 8.151,6.52083 5.42648,3.33715 6.47069,3.665 7.90378,2.48158 0.90818,-0.74997 3.45124,-2.76903 5.65124,-4.4868 3.58088,-2.79597 6.41025,-5.27866 15.75,-13.82016 2.24929,-2.05704 2.75,-2.2083 2.75,-0.83075 0,2.41573 -5.82189,8.52228 -15.06963,15.80646 l -8.01363,6.3121 2.29163,1.74064 c 1.2604,0.95735 3.41663,2.3072 4.79163,2.99967 1.375,0.69246 3.69628,2.06404 5.1584,3.04794 l 2.65841,1.7889 30.1002,-19.50141 c 16.55512,-10.72578 33.80883,-21.80144 38.3416,-24.61259 l 8.24139,-5.11119 -5.69235,5.85973 c -3.13079,3.22284 -7.26677,8.48921 -9.19107,11.70303 C 630.0681,351.26972 627,361.9805 627,368.44188 c 0,3.383 -0.46369,3.85578 -10.02502,10.22176 l -10.02501,6.6747 2.77501,2.91332 c 4.04246,4.24392 17.591,10.46441 25.52502,11.71919 17.69085,2.79785 37.20167,-5.74912 47.44742,-20.78497 C 685.06384,375.71312 687,372.45062 687,371.93588 687,371.37917 676.66863,371 661.5,371 H 636 v -2.7899 c 0,-4.63828 2.85538,-14.10644 5.74521,-19.05054 4.10817,-7.02852 10.59468,-12.95135 18.05408,-16.48516 L 666.5,329.5 l 47.25,-0.2871 c 25.9875,-0.15791 47.253,0.0671 47.25667,0.5 0.0179,2.11514 -26.04356,57.07827 -31.28549,65.98044 -17.06835,28.9865 -44.8825,46.75211 -78.72118,50.28123 -10.5585,1.10117 -10.65586,1.10089 -20.5,-0.0584 z m 18.70169,-10.78349 c 0.38592,-0.34799 -1.5823,-0.47302 -4.37383,-0.27785 -3.32556,0.23252 -4.8548,-0.002 -4.43537,-0.6809 0.6424,-1.03943 -1.0611,-2.63 -2.84741,-2.65865 -0.5252,-0.008 -1.23992,-1.14031 -1.58826,-2.51531 -0.50225,-1.98251 -0.71945,-1.52451 -1.04932,2.21265 -0.36305,4.11306 -0.16097,4.75271 1.58826,5.02745 2.81588,0.44227 11.86166,-0.34612 12.70593,-1.10739 z M 629.86382,432.25 c -0.0843,-2.32138 -0.30128,-2.89283 -0.56955,-1.5 -0.45765,2.37603 -2.23891,3.1266 -2.37322,1 -0.0604,-0.95655 -0.20062,-0.94675 -0.59724,0.0417 -0.38046,0.94819 -0.86769,1.00177 -1.83203,0.20144 -0.86577,-0.71852 -1.52549,-0.74765 -1.93478,-0.0854 -0.34158,0.55268 -1.28164,0.75139 -2.08903,0.44157 C 619.66059,432.03951 619,432.23549 619,432.78483 c 0,0.79629 4.74011,2.22847 10.25,3.09695 0.4125,0.065 0.68872,-1.56928 0.61382,-3.63178 z m 32.14491,2.16863 c 1.6548,-0.31976 2.78984,-0.93553 2.52232,-1.36839 C 663.92628,432.0717 671.75807,421 673.05504,421 c 1.64593,0 1.02437,3.75108 -1.26432,7.63014 -1.9591,3.32042 -2.00646,3.66663 -0.41822,3.05716 C 672.35759,431.30928 673.59616,431 674.12488,431 676.83251,431 687,404.89637 687,397.94489 c 0,-1.4492 0.9,-3.4494 2,-4.44489 2.39078,-2.16363 2.3981,-2.04483 0.53269,8.6522 -1.38034,7.91544 -6.19303,21.52868 -8.66333,24.50521 -1.67663,2.02022 -0.17873,1.63187 5.05639,-1.31094 l 4.72051,-2.65352 6.22341,-22.09648 c 3.42287,-12.15306 6.62837,-24.68087 7.12332,-27.83958 0.49495,-3.1587 1.40114,-6.5337 2.01375,-7.5 2.24128,-3.53523 -0.0164,13.23428 -3.54293,26.31582 -1.91671,7.11001 -4.20527,15.62729 -5.0857,18.92729 -0.88042,3.3 -2.01651,6.7875 -2.52462,7.75 -1.38829,2.62974 -0.45197,2.16259 4.83569,-2.41264 3.55629,-3.07714 4.8759,-4.96774 5.06038,-7.25 0.13725,-1.69805 1.3479,-8.71236 2.69031,-15.58736 1.34242,-6.875 3.08142,-17.29736 3.86444,-23.16079 1.76923,-13.24826 5.82213,-22.81899 10.74007,-25.36216 3.03818,-1.57111 3.30912,-1.56121 4.93377,0.18028 0.94547,1.01347 3.23945,5.37785 5.09773,9.69862 l 3.37868,7.85595 5.27272,-11.23579 c 2.9,-6.17968 5.26939,-11.51486 5.26533,-11.85595 -0.007,-0.5853 -19.67611,-0.81965 -28.61421,-0.34092 L 713.25679,339 l -4.77214,10.75 c -16.11039,36.29119 -23.07568,45.74263 -40.43826,54.87211 -3.60052,1.8932 -8.34639,4.76401 -10.54639,6.37958 -14.14465,10.38716 -40.9891,14.86048 -60,9.99831 -4.30096,-1.1 -8.08544,-1.99703 -8.40996,-1.99341 -0.97442,0.0109 5.08389,3.92606 10.12672,6.54439 5.40324,2.80545 7.03797,3.14981 4.22437,0.88986 -1.78021,-1.42991 -1.23646,-1.49797 6.55887,-0.82103 12.03421,1.04504 17.93878,0.70722 27.5544,-1.57648 8.67204,-2.0596 17.71918,-6.0961 25.26588,-11.27267 2.37615,-1.62989 4.53118,-2.75253 4.78896,-2.49475 0.83615,0.83615 -9.46812,9.45353 -15.11456,12.64018 -5.18918,2.92859 -7.24755,4.69378 -4.03655,3.4616 1.67036,-0.64097 3.17553,3.68518 2.02334,5.81547 -0.99247,1.83498 22.66723,-22.05583 25.34823,-25.59582 1.20907,-1.59647 2.4749,-2.62608 2.81295,-2.28802 1.14626,1.14625 -5.58899,10.30073 -12.69977,17.2614 -3.89329,3.8111 -8.47821,8.67012 -10.1887,10.79781 l -3.10999,3.86853 3.1779,-0.61853 c 1.74785,-0.34019 4.53184,-0.88015 6.18664,-1.1999 z M 737.6978,349.75 c -0.2839,-0.6875 -1.23808,-2.9375 -2.12041,-5 -0.88655,-2.07237 -1.15995,-3.75 -0.61113,-3.75 1.02924,0 5.03374,7.12809 5.03374,8.96016 0,1.45438 -1.6781,1.30119 -2.3022,-0.21016 z m -25.8788,54.35977 c 3.74436,-4.73697 3.88454,-5.19924 4.47305,-14.75 1.09281,-17.73526 4.39714,-26.54536 9.36479,-24.96869 2.04525,0.64914 4.34316,4.43527 4.34316,7.15597 0,2.42358 -1.73989,1.62543 -2.42732,-1.11349 -0.83421,-3.32376 -3.5954,-2.87314 -5.3944,0.88035 -0.73533,1.5342 -1.96975,7.29865 -2.74317,12.80988 -0.77341,5.51124 -1.672,10.55048 -1.99685,11.19832 -0.32485,0.64784 0.39576,0.0529 1.60135,-1.32211 1.2056,-1.375 5.10112,-8.3034 8.65673,-15.39644 l 6.46474,-12.89645 -3.01978,-6.60355 c -1.66088,-3.63196 -3.32091,-7.84106 -3.68895,-9.35356 -1.50325,-6.17776 -8.09567,-0.92864 -10.88527,8.66725 -0.86988,2.99227 -2.485,11.43499 -3.58917,18.76162 -2.79774,18.56418 -4.77814,29.68888 -5.4903,30.84118 -0.33311,0.53897 -0.36455,0.97995 -0.0699,0.97995 0.29467,0 2.27524,-2.2006 4.40127,-4.89023 z M 564.86786,399.725 c -0.77197,-0.77196 -2.07054,-1.66537 -2.88572,-1.98534 -0.88444,-0.34716 -0.40885,-0.6136 1.17938,-0.66071 3.34492,-0.0992 3.21426,-2.77735 -0.25079,-5.14056 C 556.74712,387.73473 544.31591,380 543.72342,380 c -0.36336,0 -0.40732,0.7875 -0.0977,1.75 0.47517,1.47714 0.3947,1.51612 -0.51607,0.25 -0.59347,-0.825 -1.08592,-1.14804 -1.09434,-0.71787 -0.008,0.43018 -2.03478,-0.34532 -4.50302,-1.72333 -4.60401,-2.57038 -7.84193,-2.47877 -7.31138,0.20687 0.40825,2.06658 34.063,23.33109 35.1848,22.23126 0.51186,-0.50182 0.29327,-1.46081 -0.51785,-2.27193 z m -20.99542,-14.38872 c -1.24448,-1.5086 -1.16266,-1.55194 0.87756,-0.46482 2.32696,1.23991 2.89993,2.12854 1.37244,2.12854 -0.48265,0 -1.49515,-0.74867 -2.25,-1.66372 z M 536.63837,382.5 c -0.33797,-0.88074 -0.0135,-1.5 0.78603,-1.5 0.74889,0 1.62064,0.675 1.93723,1.5 0.33797,0.88074 0.0135,1.5 -0.78603,1.5 -0.74889,0 -1.62064,-0.675 -1.93723,-1.5 z m -3.68616,-1.5893 c -0.94769,-1.77077 -0.85311,-2.03758 0.62034,-1.75 0.95617,0.18661 1.85369,1.1268 1.99449,2.0893 0.35239,2.409 -1.25566,2.20034 -2.61483,-0.3393 z m 34.90455,17.97961 c -2.11014,-1.33705 -3.07508,-1.0412 -1.64619,0.50473 0.70919,0.76727 1.67497,1.16102 2.14619,0.875 0.47122,-0.28602 0.24622,-0.9069 -0.5,-1.37973 z m 2.15202,-2.59672 c -1.17597,-0.82367 -2.40901,-1.22669 -2.74011,-0.89559 -0.3311,0.3311 -0.0505,0.602 0.62368,0.602 0.67413,0 0.9046,0.51953 0.51216,1.15451 -0.44208,0.7153 -0.27432,0.88306 0.44098,0.44098 C 569.48047,397.20305 570,397.38508 570,398 c 0,0.61492 0.48305,0.81949 1.07344,0.45461 0.66842,-0.41311 0.26671,-1.22849 -1.06466,-2.16102 z M 529,379.2 c 0,-1.41318 -2.34521,-3.2 -4.2,-3.2 -0.99,0 -1.8,-0.70156 -1.8,-1.55902 0,-0.85746 -0.41921,-1.29993 -0.93158,-0.98327 -0.51237,0.31666 -1.52487,-0.25395 -2.25,-1.26803 -0.72513,-1.01409 -2.21842,-2.35793 -3.31842,-2.98633 -1.1,-0.62839 -1.49819,-1.15622 -0.88486,-1.17294 0.61333,-0.0167 2.34273,0.93521 3.84311,2.11541 1.50039,1.1802 4.37357,2.24226 6.38486,2.36012 4.45993,0.26134 4.42732,0.24748 3.62688,1.54262 -0.44822,0.72523 -1.05568,0.71025 -1.96999,-0.0486 -0.83937,-0.69661 -1.54227,-0.74062 -1.92549,-0.12055 -0.33195,0.5371 0.41548,1.31897 1.66097,1.73747 3.75929,1.26316 4.63021,1.24984 5.7404,-0.0879 1.48106,-1.78458 -10.85568,-9.56563 -14.16127,-8.93182 -1.97408,0.37851 -2.03189,0.31966 -0.39293,-0.40003 1.65172,-0.7253 1.07144,-1.36033 -4.13081,-4.52053 C 507.49691,357.54958 507,357.39909 507,359.46862 c 0,0.81654 0.59487,1.24034 1.33979,0.95449 0.73688,-0.28277 1.91698,0.18135 2.62244,1.03138 1.07044,1.2898 1.00445,1.54551 -0.3988,1.54551 -0.92481,0 -1.44369,-0.38472 -1.15309,-0.85493 0.61191,-0.9901 -5.65858,-0.97518 -6.41393,0.0153 -0.27698,0.36318 -1.71358,-0.38045 -3.19244,-1.65252 l -2.68885,-2.31284 3.12658,-1.29507 c 2.3965,-0.99267 3.21979,-1.01543 3.52577,-0.0975 0.21956,0.65867 0.8117,1.19759 1.31586,1.19759 1.59336,0 0.99464,-1.47022 -1.14215,-2.80466 -1.75894,-1.09848 -2.57071,-0.96939 -5.5732,0.88625 -2.45441,1.51691 -3.1977,2.48869 -2.46442,3.22197 1.3741,1.3741 31.37046,20.47942 32.34644,20.60214 0.4125,0.0519 0.75,-0.2657 0.75,-0.7057 z m 0.76845,-4.36845 c 0.5811,-0.5811 1.64682,-0.85979 2.36826,-0.61931 0.74895,0.24965 0.29565,0.70294 -1.05655,1.05655 -1.66335,0.43497 -2.05378,0.30483 -1.31171,-0.43724 z M 523,370 c 0,-0.55 0.42344,-1 0.94098,-1 0.51754,0 1.2191,0.45 1.55902,1 0.33992,0.55 -0.0835,1 -0.94098,1 C 523.70156,371 523,370.55 523,370 Z m -16,-5 c 0,-0.55 0.42344,-1 0.94098,-1 0.51754,0 1.2191,0.45 1.55902,1 0.33992,0.55 -0.0835,1 -0.94098,1 C 507.70156,366 507,365.55 507,365 Z m 4,0.60699 c 0,-0.21616 0.69837,-0.661 1.55194,-0.98855 0.88992,-0.34149 1.29132,-0.17385 0.94098,0.39301 C 512.90566,365.96166 511,366.4169 511,365.60699 Z m 31,13.95203 c 0,-0.24254 -0.45,-0.7191 -1,-1.05902 -0.55,-0.33992 -1,-0.14148 -1,0.44098 0,0.58246 0.45,1.05902 1,1.05902 0.55,0 1,-0.19844 1,-0.44098 z m -4.427,-3.08049 c -2.05508,-1.55476 -3.20345,-1.30764 -2.11412,0.45494 0.36254,0.58659 1.4201,1.05222 2.35014,1.03473 1.48465,-0.0279 1.45585,-0.2097 -0.23602,-1.48967 z M 693.8921,356.75 l 1.81008,-4.25 -7.60109,-0.56662 -7.60109,-0.56662 8.30503,-0.18338 8.30503,-0.18338 2.44497,-5.52851 C 700.89976,342.4308 702,339.45297 702,338.85408 c 0,-0.75831 -4.93357,-0.95732 -16.25,-0.65552 -14.18785,0.37839 -16.91332,0.72492 -21.47705,2.73069 C 656.8049,344.21146 648,354.51281 648,359.96788 648,360.64615 655.5564,361 670.04101,361 h 22.041 z M 658.75,351.26779 c 2.3375,-0.21053 6.1625,-0.21053 8.5,0 2.3375,0.21054 0.425,0.3828 -4.25,0.3828 -4.675,0 -6.5875,-0.17226 -4.25,-0.3828 z M 577,348.74481 c 0,-0.61544 -1.35,0.17439 -3,1.75519 -1.65,1.5808 -3,3.04563 -3,3.25519 0,0.20955 1.35,-0.58029 3,-1.75519 1.65,-1.1749 3,-2.63974 3,-3.25519 z m 286,96.66252 c -12.09879,-3.21399 -22.13705,-10.30119 -29.0877,-20.53648 -2.2074,-3.25054 -6.86398,-11.9234 -10.34796,-19.27303 l -6.33449,-13.36297 -9.55963,3.33069 c -13.08751,4.55986 -23.02138,6.46672 -37.17022,7.13506 -11.23519,0.5307 -28.30046,-0.85219 -31.03531,-2.51496 -0.75174,-0.45706 1.17092,-5.1863 5.76715,-14.18564 5.20056,-10.18263 6.73865,-12.5432 6.25923,-9.6063 -0.34959,2.14153 -1.2929,4.55098 -2.09624,5.35433 -0.80335,0.80335 -2.33692,3.1783 -3.40795,5.27768 l -1.94731,3.81705 5.02944,1.07862 c 12.75725,2.73594 37.8649,0.37542 54.43099,-5.11737 20.85757,-6.91572 44.44879,-22.61369 58.03756,-38.6191 7.51765,-8.85459 15.7024,-24.20685 17.48611,-32.79895 0.66095,-3.18374 1.01449,-9.63552 0.78565,-14.33729 -0.50272,-10.32924 -3.75855,-18.34849 -10.06828,-24.79867 -4.04348,-4.13348 -7.77604,-6.15613 -4.32662,-2.34456 0.94842,1.04799 2.36816,4.0445 3.15499,6.65893 6.27335,20.84477 -10.53702,50.58744 -39.93925,70.6647 -8.94637,6.10902 -25.04039,13.38346 -35.735,16.15209 -10.88396,2.81766 -26.83413,4.8158 -35.11795,4.39936 l -5.58019,-0.28052 1.4923,-3.5 c 0.82076,-1.925 1.72458,-4.0625 2.00848,-4.75 0.35758,-0.86593 3.21465,-1.25 9.29872,-1.25 27.95943,0 56.18632,-12.72197 77.04917,-34.72637 15.10075,-15.92701 20.87136,-30.61637 15.98926,-40.70144 -3.43836,-7.1027 -8.97492,-9.88966 -20.66226,-10.40082 -9.03443,-0.39513 -9.25061,-0.46243 -10.40014,-3.23765 -0.64567,-1.55877 -3.15691,-5.85325 -5.58054,-9.54329 -2.42363,-3.69005 -4.27192,-6.84385 -4.10731,-7.00846 0.1646,-0.16461 3.65539,-0.82368 7.75729,-1.46461 15.78139,-2.46585 32.63787,0.78066 44.32235,8.53637 21.44565,14.23482 26.64678,43.75476 12.61272,71.58579 -3.10963,6.16673 -13.25091,20.14106 -17.33339,23.88479 -1.45402,1.33338 -2.64367,3.06971 -2.64367,3.85853 0,0.78882 6.57033,14.99788 14.60074,31.57569 8.03041,16.57781 17.01343,35.20397 19.96227,41.39147 l 5.36152,11.25 -16.71226,-0.0658 C 873.92424,446.88974 866.71488,446.39417 863,445.40733 Z m 1.075,-11.68233 c -0.12369,-1.1957 -1.49529,-0.96414 -1.925,0.325 -0.22,0.66 0.14,1.02 0.8,0.8 0.66,-0.22 1.16625,-0.72625 1.125,-1.125 z M 877,434.30602 c -0.825,-0.29485 -2.0625,-1.24533 -2.75,-2.11218 -1.13521,-1.43137 -1.25,-1.42846 -1.25,0.0317 0,1.67483 1.43965,2.61657 4,2.61657 1.33333,0 1.33333,-0.0596 0,-0.53609 z m -16.55279,-2.39143 c -0.32197,-0.52097 -1.01165,-0.68378 -1.53262,-0.3618 -0.52097,0.32197 -0.68378,1.01165 -0.3618,1.53262 0.32197,0.52097 1.01165,0.68378 1.53262,0.3618 0.52097,-0.32197 0.68378,-1.01165 0.3618,-1.53262 z m 8.99865,-0.63411 c 0.36292,-0.94573 0.33997,-1.39964 -0.051,-1.00868 -0.39096,0.39097 -1.31475,0.20965 -2.05285,-0.40292 -1.69184,-1.4041 -1.75648,-0.25522 -0.092,1.63529 1.57186,1.78532 1.41896,1.8009 2.19586,-0.22369 z M 882.36448,429.75 c -0.99189,-1.91101 -1.86874,-2.71116 -2.1283,-1.94214 -0.24278,0.71933 0.3495,2.18183 1.31619,3.25 2.51377,2.7777 2.74195,2.41023 0.81211,-1.30786 z M 856.28975,430 c -0.28766,-1.1 -0.92053,-2 -1.40638,-2 -1.0332,0 -1.18684,2.3632 -0.2167,3.33333 1.311,1.31101 2.13712,0.63237 1.62308,-1.33333 z m -4.20642,-2.41667 c -0.0458,-0.32083 -0.42083,-0.6216 -0.83333,-0.66837 -0.4125,-0.0468 -1.425,-0.60151 -2.25,-1.23276 -0.825,-0.63126 -0.64026,-0.14023 0.41054,1.09116 1.72065,2.01638 2.89602,2.37257 2.67279,0.80997 z m 11.02501,-0.6416 c -1.31542,-1.09546 -2.61704,-1.76636 -2.8925,-1.4909 -0.85757,0.85757 1.94357,3.55092 3.6566,3.5159 1.25888,-0.0257 1.0858,-0.48444 -0.7641,-2.025 z m -12.38205,-4.55625 c -1.52554,-0.81081 -3.23276,-1.1905 -3.79381,-0.84375 -0.56105,0.34675 -1.78788,0.037 -2.72628,-0.68841 -1.60409,-1.23993 -1.60521,-1.20019 -0.0187,0.66391 1.06192,1.24774 3.10081,2.04944 5.5,2.16261 l 3.81251,0.17985 z m 19.16537,-1.2744 C 866.77264,418.58248 865.97566,419.377 869,422 c 1.27636,1.10698 2.53725,1.79608 2.80199,1.53135 0.26473,-0.26474 -0.59491,-1.35386 -1.91033,-2.42027 z m -3.16249,1.28475 c -0.33229,-0.33229 -1.1948,-0.36781 -1.91667,-0.0789 -0.79773,0.31922 -0.56078,0.55618 0.60417,0.60416 1.05416,0.0434 1.64479,-0.19293 1.3125,-0.52522 z m 10.875,-3.125 c -1.01652,-1.01651 -1.85525,0.51389 -1.02122,1.86338 0.63003,1.01942 0.86558,1.02021 1.2043,0.004 0.2316,-0.69479 0.14921,-1.53513 -0.18308,-1.86742 z M 863,420 c 0,-0.55 -0.45,-1 -1,-1 -0.55,0 -1,0.45 -1,1 0,0.55 0.45,1 1,1 0.55,0 1,-0.45 1,-1 z m -5.18998,-0.86143 c 0.86863,-0.55087 0.27293,-0.86028 -1.76799,-0.91831 -1.69292,-0.0481 -2.81837,0.33262 -2.50101,0.84611 0.7094,1.14783 2.52453,1.17853 4.269,0.0722 z M 873.26797,418 c -0.94185,-1.1 -1.85328,-2 -2.02539,-2 -0.17212,0 0.16872,0.9 0.75742,2 0.5887,1.1 1.50013,2 2.0254,2 0.52526,0 0.18442,-0.9 -0.75743,-2 z M 867,417.05902 c 0,-0.51754 -0.45,-1.2191 -1,-1.55902 -0.55,-0.33992 -1,0.0835 -1,0.94098 0,0.85746 0.45,1.55902 1,1.55902 0.55,0 1,-0.42344 1,-0.94098 z m -17.55887,-1.52722 c -1.06762,-0.8075 -2.39113,-1.46819 -2.94113,-1.46819 -0.55,0 -0.12649,0.66069 0.94113,1.46819 1.06762,0.80751 2.39113,1.4682 2.94113,1.4682 0.55,0 0.12649,-0.66069 -0.94113,-1.4682 z m 24.44952,-3.81998 c -1.44426,-2.97271 -2.67869,-4.34665 -3.59082,-3.99663 -1.05075,0.40321 -0.86113,0.90378 0.77696,2.05115 1.92021,1.34496 1.98226,1.62111 0.54506,2.4254 -0.89202,0.4992 -1.61496,1.44778 -1.60654,2.10795 0.0102,0.79714 0.31018,0.73471 0.89319,-0.18587 0.71276,-1.12547 1.21706,-0.99004 2.68129,0.72006 2.67102,3.11952 2.78063,1.98206 0.30086,-3.12206 z M 844.5,414 c -0.33992,-0.55 -1.29303,-1 -2.11803,-1 -0.825,0 -1.22189,0.45 -0.88197,1 0.33992,0.55 1.29303,1 2.11803,1 0.825,0 1.22189,-0.45 0.88197,-1 z m 11.5,-0.39301 c 0,-0.21616 -0.69837,-0.661 -1.55194,-0.98855 -0.88992,-0.34149 -1.29132,-0.17385 -0.94098,0.39301 0.58726,0.95021 2.49292,1.40545 2.49292,0.59554 z M 868.5,412 c 0.33992,-0.55 0.14148,-1 -0.44098,-1 -0.58246,0 -1.05902,0.45 -1.05902,1 0,0.55 0.19844,1 0.44098,1 0.24254,0 0.7191,-0.45 1.05902,-1 z M 852,410.55902 c 0,-0.24254 -0.45,-0.7191 -1,-1.05902 -0.55,-0.33992 -1,-0.14148 -1,0.44098 0,0.58246 0.45,1.05902 1,1.05902 0.55,0 1,-0.19844 1,-0.44098 z m -3,-1.31433 c 0,-0.41542 -1.575,-1.24828 -3.5,-1.85079 -1.925,-0.60252 -3.5,-0.72549 -3.5,-0.27328 0,0.45221 1.4625,1.24448 3.25,1.7606 1.7875,0.51612 3.3625,0.97899 3.5,1.02859 0.1375,0.0496 0.25,-0.2497 0.25,-0.66512 z M 870,404 c -0.5887,-1.1 -1.29537,-2 -1.57037,-2 -0.275,0 -0.0183,0.9 0.57037,2 0.5887,1.1 1.29537,2 1.57037,2 0.275,0 0.0183,-0.9 -0.57037,-2 z m -29.90008,-0.3796 c -1.80232,-2.17167 -6.10035,-2.68741 -6.09792,-0.73173 0.001,1.13755 1.06888,1.68768 3.63047,1.87099 3.0106,0.21544 3.43076,0.0215 2.46745,-1.13926 z M 848,403 c 0,-0.55 -0.47656,-1 -1.05902,-1 -0.58246,0 -0.7809,0.45 -0.44098,1 0.33992,0.55 0.81648,1 1.05902,1 0.24254,0 0.44098,-0.45 0.44098,-1 z m -3.99086,-2.48899 c -0.67967,-0.81894 -1.68281,-1.21269 -2.22921,-0.875 -0.60346,0.37296 -0.46084,0.95147 0.36331,1.47368 2.15703,1.36676 3.21528,1.02722 1.8659,-0.59868 z M 852,400 c -1.95837,-1.2656 -3.28218,-1.2656 -2.5,0 0.33992,0.55 1.37898,0.99311 2.30902,0.98469 C 853.26629,400.97149 853.29269,400.8354 852,400 Z m 14.70204,-3.01501 -1.44745,-2.06653 -0.53368,2.04077 c -0.3504,1.33995 -0.0507,2.04077 0.87271,2.04077 0.77351,0 1.44191,0.5625 1.48533,1.25 0.0611,0.96814 0.19074,0.97395 0.57474,0.0258 0.27269,-0.67333 -0.15555,-2.15418 -0.95165,-3.29077 z m -18.87809,0.0432 c 0.30175,-0.90525 -0.0876,-1.14096 -1.1875,-0.71888 -0.92306,0.35421 -1.63645,0.13305 -1.63645,-0.50732 0,-0.62441 -0.23559,-0.89969 -0.52354,-0.61174 -0.28794,0.28794 -0.2325,1.28196 0.12321,2.20893 0.72537,1.89029 2.54012,1.68149 3.22428,-0.37099 z M 857.36163,396.5 c -0.31659,-0.825 -0.75246,-1.5 -0.96862,-1.5 -0.21615,0 -0.39301,0.675 -0.39301,1.5 0,0.825 0.43588,1.5 0.96862,1.5 0.53273,0 0.70959,-0.675 0.39301,-1.5 z M 863,396 c 0,-0.55 -0.45,-1 -1,-1 -0.55,0 -1,0.45 -1,1 0,0.55 0.45,1 1,1 0.55,0 1,-0.45 1,-1 z m -8.28205,-2.10006 c 0.81485,-0.26757 0.91066,-0.89478 0.28949,-1.89507 -0.8014,-1.2905 -1.11421,-1.24111 -2.28563,0.3609 -1.27983,1.75027 -1.45448,1.7587 -3.06518,0.148 -1.11153,-1.11153 -2.31021,-1.43805 -3.43233,-0.93496 -1.49453,0.67006 -1.42448,0.82552 0.5257,1.16668 1.2375,0.21649 2.25,0.77932 2.25,1.25074 0,1.05447 3.30965,1.8395 4,0.94878 0.275,-0.35482 1.04808,-0.8251 1.71795,-1.04507 z m 9.62713,-1.44307 c -0.32569,-0.84872 -0.80663,-1.32866 -1.06875,-1.06653 -0.26213,0.26213 -0.17998,0.95654 0.18255,1.54313 0.98605,1.59546 1.56238,1.28551 0.8862,-0.4766 z m -6.28867,-3.8889 c -0.67572,-0.8142 -0.96423,-1.90811 -0.64112,-2.43091 0.89824,-1.45338 -3.1843,-0.12032 -4.50498,1.471 -0.838,1.00973 -0.84699,1.39194 -0.0327,1.39194 0.61734,0 1.15797,-0.5625 1.20139,-1.25 0.0632,-1 0.17982,-1 0.58333,0 0.27741,0.6875 1.14189,1.25 1.92105,1.25 0.77917,0 1.41667,0.525 1.41667,1.16667 0,0.64166 0.28913,0.87754 0.6425,0.52416 0.35338,-0.35337 0.0896,-1.30866 -0.58609,-2.12286 z M 863,389.16667 c 0,-1.30208 -1.18877,-2.16804 -2.15579,-1.57039 C 859.80999,388.23547 860.70176,390 862.05902,390 862.57656,390 863,389.625 863,389.16667 Z M 861,385 c 0,-0.55 -0.45,-1 -1,-1 -0.55,0 -1,0.45 -1,1 0,0.55 0.45,1 1,1 0.55,0 1,-0.45 1,-1 z m -71.1875,-4.68311 c 0.72187,-0.28887 1.58438,-0.25335 1.91667,0.0789 0.33229,0.33229 -0.25834,0.56864 -1.3125,0.52522 -1.16495,-0.048 -1.4019,-0.28494 -0.60417,-0.60416 z m 4,-1 c 0.72187,-0.28887 1.58438,-0.25335 1.91667,0.0789 0.33229,0.33229 -0.25834,0.56864 -1.3125,0.52522 -1.16495,-0.048 -1.4019,-0.28494 -0.60417,-0.60416 z M 568,372.89301 c 0,-0.60884 0.69837,-0.839 1.55194,-0.51145 0.87032,0.33397 1.28968,0.1712 0.95482,-0.37062 -0.32841,-0.53138 2.68572,-3.03474 6.69807,-5.56303 4.01234,-2.52829 10.47428,-6.77896 14.35986,-9.44595 4.04241,-2.77463 7.56736,-4.53838 8.23971,-4.12285 1.22579,0.75758 -28.23797,21.12644 -30.5544,21.12283 -0.6875,-0.001 -1.25,-0.50008 -1.25,-1.10893 z m 265,-11.27057 c 0,-0.20765 0.7875,-0.99515 1.75,-1.75 1.58606,-1.24387 1.62143,-1.2085 0.37756,0.37756 C 833.82119,361.91575 833,362.44548 833,361.62244 Z m -47,-37.09327 c -5.775,-12.34941 -10.75186,-22.4705 -11.05968,-22.49132 -0.30783,-0.0208 -2.40958,4.01215 -4.67055,8.96215 l -4.11086,9 h -5.14684 c -6.28557,0 -6.51258,1.23206 3.685,-20 4.09448,-8.525 7.50607,-16.25632 7.58131,-17.18072 0.0752,-0.9244 0.4708,-1.4743 0.87903,-1.22199 0.40823,0.2523 1.25196,-0.49369 1.87495,-1.65776 3.70104,-6.91545 11.99534,-13.12987 19.70211,-14.76159 l 3.76553,-0.79726 -4.13114,-2.62785 c -14.72782,-9.36848 -33.63492,-6.7936 -45.68471,6.22161 -4.36714,4.71703 -7.09024,9.57657 -16.16593,28.84906 L 721.60409,320 h -5.24702 -5.24701 l 2.34686,-5.25 c 8.44041,-18.88147 20.77977,-44.23367 23.34155,-47.95709 8.9155,-12.95823 22.37762,-19.89668 38.70155,-19.94699 13.75719,-0.0424 24.06692,4.52319 33.48579,14.82893 5.00072,5.47158 13.34997,21.19728 26.53593,49.98006 l 3.27781,7.15492 -5.02963,5.13638 c -6.25876,6.39161 -13.41998,11.42902 -14.27678,10.0427 -0.34723,-0.56185 -1.00309,-0.79178 -1.45745,-0.51097 -0.45437,0.28082 -1.09544,-0.19127 -1.42461,-1.04907 -0.47226,-1.2307 -0.12526,-1.41611 1.64521,-0.87908 1.23404,0.37432 2.46871,0.68203 2.74371,0.68381 2.35497,0.0153 3,-0.5725 3,-2.7336 0,-1.55556 0.56667,-2.5 1.5,-2.5 0.825,0 1.5,0.46774 1.5,1.03943 0,0.59976 0.59008,0.49401 1.39504,-0.25 0.76727,-0.70919 1.14774,-1.69646 0.84549,-2.19394 -0.30225,-0.49748 -0.03,-0.58342 0.60496,-0.19098 0.63498,0.39244 1.15451,0.28711 1.15451,-0.23407 0,-1.96835 -19.36375,-40.57919 -19.7579,-39.39675 -0.2271,0.68132 -0.82449,0.98441 -1.32751,0.67352 C 809.41157,286.13633 809,286.4871 809,287.2267 c 0,0.7396 -0.84887,1.34473 -1.88639,1.34473 -1.12621,0 -1.68756,-0.51812 -1.39301,-1.28572 0.58242,-1.51776 -0.61892,-1.64392 -2.7206,-0.28571 -1.27571,0.82443 -1.28319,0.97166 -0.05,0.98469 1.15479,0.0122 1.19721,0.2681 0.20836,1.25695 -0.98886,0.98886 -1.41086,0.96784 -2.07283,-0.10324 -1.16534,-1.88556 -4.56683,0.0298 -9.25194,5.20972 -3.19905,3.5369 -3.46655,4.19978 -2.09851,5.20011 1.1308,0.82687 1.24234,1.34769 0.4001,1.86823 -0.64229,0.39695 -0.91209,1.13549 -0.59955,1.64118 0.31253,0.5057 -0.13013,0.65146 -0.98369,0.32392 -2.14148,-0.82176 -2.06288,-0.54698 2.37262,8.295 2.15851,4.30289 6.18336,12.61884 8.94411,18.47988 C 804.46001,339.9038 807,343.78701 807,341.05902 807,340.47656 806.475,340 805.83333,340 c -0.64166,0 -0.9052,-0.26146 -0.58564,-0.58102 0.31956,-0.31956 1.51956,-0.0787 2.66666,0.53518 1.7088,0.91452 2.08565,0.82815 2.08565,-0.47799 0,-0.87681 -0.45,-1.31609 -1,-0.97617 -0.55,0.33992 -1,0.14148 -1,-0.44098 0,-1.59744 1.98171,-1.27026 2.63617,0.43524 0.31537,0.82184 1.08875,1.20582 1.71861,0.85329 0.77488,-0.43368 0.82184,-0.29858 0.14522,0.41778 -1.443,1.52777 -12.99564,7.23626 -14.6237,7.22599 -0.81251,-0.005 -5.67758,-9.20665 -11.8763,-22.46215 z M 789,301 c 0,-0.55 -0.675,-1 -1.5,-1 -0.825,0 -1.5,0.45 -1.5,1 0,0.55 0.675,1 1.5,1 0.825,0 1.5,-0.45 1.5,-1 z m 23.60819,35.50426 c -1.0405,-0.78767 -2.3905,-1.61711 -3,-1.8432 -0.80047,-0.29692 -0.78904,-0.75104 0.0412,-1.6354 1.45803,-1.55318 5.42642,-0.38666 4.74303,1.39423 -0.35329,0.92066 0.28086,1.23118 2.10534,1.0309 2.1541,-0.23646 2.40502,-0.0385 1.43416,1.1313 -1.47233,1.77405 -2.90507,1.7531 -5.32368,-0.0778 z M 813,334.55902 c 0,-0.24254 -0.45,-0.7191 -1,-1.05902 -0.55,-0.33992 -1,-0.14148 -1,0.44098 0,0.58246 0.45,1.05902 1,1.05902 0.55,0 1,-0.19844 1,-0.44098 z M 860.64394,334.25 c 3.58656,-4.89839 5.17451,-6.47767 3.01645,-3 -0.93857,1.5125 -1.40227,2.75 -1.03043,2.75 0.37183,0 -0.36165,0.9 -1.62996,2 -3.35963,2.91379 -3.44905,2.47428 -0.35606,-1.75 z M 805,335.5 c 0,-0.825 -0.45,-1.5 -1,-1.5 -0.55,0 -1,-0.45381 -1,-1.00847 0,-0.59779 0.81448,-0.49983 2,0.24054 2.08271,1.30068 2.73751,3.76793 1,3.76793 -0.55,0 -1,-0.675 -1,-1.5 z m -240.1875,-0.18311 c 0.72187,-0.28887 1.58438,-0.25335 1.91667,0.0789 0.33229,0.33229 -0.25834,0.56864 -1.3125,0.52522 -1.16495,-0.048 -1.4019,-0.28494 -0.60417,-0.60416 z m -60.47042,-3.76595 c 0.51017,-1.3295 0.22777,-1.54919 -1.34837,-1.04894 -3.4266,1.08756 -2.18303,-0.36477 2.2479,-2.62526 3.62722,-1.85047 4.02677,-1.90504 2.75839,-0.37674 -1.26227,1.52094 -0.8461,1.46213 2.79371,-0.39476 2.35231,-1.20006 4.01266,-2.60952 3.68967,-3.13213 -0.32708,-0.52923 0.11842,-0.67941 1.00558,-0.33897 1.03294,0.39637 1.49058,0.12872 1.30193,-0.76146 -0.18066,-0.8525 0.4103,-1.2526 1.55946,-1.0558 1.07371,0.18388 1.58283,-0.11598 1.21299,-0.7144 -1.19408,-1.93205 22.35983,-11.88603 24.70135,-10.43889 1.17142,0.72397 -0.17988,2.33641 -1.95801,2.33641 -2.42217,0 -18.97809,8.1297 -26.80668,13.16329 -3.85,2.47546 -8.08073,5.07875 -9.40163,5.7851 -2.12796,1.13793 -2.32809,1.09264 -1.75629,-0.39745 z m 81.83413,-0.77473 c -0.84133,-0.84133 -1.15816,-8.1659 -1.11282,-25.72621 0.0405,-15.69107 0.38973,-23.73808 0.96777,-22.3 1.74197,4.33377 2.96884,2.3364 2.96884,-4.83333 0,-5.2192 -0.32897,-6.97518 -1.25,-6.67235 -0.6875,0.22604 -1.51991,2.40104 -1.84981,4.83333 -0.32989,2.43229 -0.63186,-5.25265 -0.67105,-17.07765 -0.0392,-11.825 0.0814,-21.05 0.26791,-20.5 0.18654,0.55 0.62141,2.6875 0.96637,4.75 0.8721,5.21421 2.35323,4.68553 2.80154,-1 0.206,-2.6125 0.45566,16.0074 0.55479,41.37756 0.14545,37.22298 -0.0753,46.33964 -1.14354,47.2262 -0.9667,0.80229 -1.64108,0.78137 -2.5,-0.0776 z M 589,316.91667 c 0,-9.22101 -0.2961,-11.98517 -1.25,-11.66894 C 585.09153,306.12905 585.84758,329 588.53518,329 588.79083,329 589,323.5625 589,316.91667 Z m 219.59609,13.34608 c -0.75997,-0.75996 -1.23525,-0.85163 -5.75761,-1.11044 -2.66673,-0.15261 -3.08349,-1.36808 -1.39631,-4.07225 0.66871,-1.07179 0.47792,-1.26337 -0.77813,-0.78138 -0.91522,0.3512 -1.66404,0.17439 -1.66404,-0.39292 0,-0.56731 0.7875,-0.90192 1.75,-0.74358 0.9625,0.15835 2.3125,-0.0649 3,-0.49616 1.43826,-0.90214 3.53128,0.0698 2.77732,1.28977 -0.6691,1.08263 2.32133,3.5289 3.21789,2.63234 0.38328,-0.38328 0.0349,-1.11552 -0.77417,-1.62719 -1.12675,-0.71258 -0.85898,-0.9339 1.1441,-0.94563 1.43833,-0.008 3.82453,0.93599 5.30266,2.09869 2.90722,2.28682 4.65995,1.88954 2.60226,-0.58983 C 816.97515,324.26513 817.03733,324 818.37756,324 819.2699,324 820,324.49814 820,325.10699 c 0,0.60884 0.675,0.84797 1.5,0.53138 0.825,-0.31658 1.5,-0.13972 1.5,0.39301 0,0.53274 -0.5051,0.96862 -1.12244,0.96862 -0.7676,0 -0.72255,0.48185 0.1425,1.52417 0.69572,0.83829 0.95135,1.83776 0.56807,2.22104 -0.38328,0.38328 -1.03768,0.14543 -1.45423,-0.52855 -0.81787,-1.32335 -6.1339,-1.30212 -6.1339,0.0245 0,0.44272 -1.13904,0.0586 -2.53121,-0.85357 -1.39216,-0.91218 -2.84163,-1.34808 -3.22104,-0.96868 -0.37941,0.37941 -0.0279,1.10848 0.78121,1.62015 0.80907,0.51167 0.98354,0.93721 0.38771,0.94563 -0.59584,0.008 -1.4151,-0.31645 -1.82058,-0.72194 z m -3.15339,-3.68099 c -2.09456,-1.53158 -3.04375,-1.3633 -1.98382,0.35171 0.36254,0.58659 1.3936,1.06653 2.29127,1.06653 1.36496,0 1.31464,-0.23214 -0.30745,-1.41824 z M 568,329.60699 c 0,-0.21616 0.69837,-0.661 1.55194,-0.98855 0.88992,-0.34149 1.29132,-0.17385 0.94098,0.39301 C 569.90566,329.96166 568,330.4169 568,329.60699 Z m 64.93251,-3.02567 c 0.64758,-0.78028 4.41518,-3.32355 8.37245,-5.65171 3.95727,-2.32816 10.75046,-6.66183 15.09598,-9.63037 4.50934,-3.08045 8.27621,-5.02209 8.77515,-4.52315 1.252,1.252 -29.57427,21.22391 -32.7587,21.22391 -0.36425,0 -0.13245,-0.63841 0.51512,-1.41868 z m 232.63178,0.12555 c 0.37553,-0.98622 0.93469,-1.54122 1.24258,-1.23333 0.30789,0.30789 6.4e-4,1.11479 -0.68278,1.79313 -0.98762,0.98026 -1.10248,0.8654 -0.5598,-0.5598 z m -38.82872,-1.30464 C 825.88956,324.55622 827.01195,322 828.22943,322 c 0.63844,0 0.60194,0.49826 -0.0983,1.34201 -0.61257,0.7381 -0.81767,1.6381 -0.45578,2 0.3619,0.36189 0.43299,0.65799 0.15799,0.65799 -0.275,0 -0.76899,-0.26899 -1.09776,-0.59777 z m -213.27128,-2.34446 c 0.28144,-0.45536 5.1296,-2.75322 10.77371,-5.10634 11.51365,-4.80024 17.11585,-7.76091 23.90773,-12.63485 2.88001,-2.06673 5.26989,-3.09432 6.28794,-2.70366 1.20069,0.46075 -0.43162,1.91529 -6.0711,5.40995 -4.29927,2.66416 -8.37223,4.52692 -9.20199,4.20851 -0.94547,-0.36281 -1.23243,-0.15665 -0.78642,0.565 0.94532,1.52956 -9.25968,6.61065 -18.31923,9.12118 -3.90628,1.08249 -6.87207,1.59558 -6.59064,1.14021 z m 207.24285,-0.7792 C 819.37371,320.94514 819,320.88103 819,321.98571 c 0,1.1 -0.26667,1.14762 -1.2,0.21429 -1.45112,-1.45112 -3.16536,-1.60018 -2.3,-0.2 0.33992,0.55 -0.0835,1 -0.94098,1 -0.85746,0 -1.55934,-0.3375 -1.55973,-0.75 -3.8e-4,-0.4125 -1.12707,-0.815 -2.50374,-0.89445 C 806.46702,321.12307 805,320.20547 805,317.91816 c 0,-1.97821 -0.38751,-2.10295 -4.99434,-1.6077 -4.7087,0.50621 -4.93483,0.42571 -3.95376,-1.40744 0.57232,-1.06939 0.7084,-2.49755 0.30239,-3.17369 -0.81208,-1.35235 2.68659,1.14576 3.8804,2.77067 0.40408,0.55 0.74158,-0.48906 0.75,-2.30902 0.008,-1.81996 -0.4036,-3.05012 -0.91559,-2.73369 -0.512,0.31644 -1.25736,0.0471 -1.65637,-0.5985 -0.50279,-0.81354 -0.0596,-0.9997 1.44399,-0.60651 1.5042,0.39336 2.48288,-0.0183 3.19155,-1.34248 1.30156,-2.43199 2.64965,-2.43692 3.41913,-0.0125 0.33619,1.05924 1.3598,1.7852 2.31739,1.64353 0.94336,-0.13957 1.12781,-0.0556 0.40987,0.1867 -1.92276,0.64879 -1.03564,2.20927 2.33167,4.10148 1.63552,0.91906 3.12367,2.00851 3.307,2.42101 0.49675,1.11767 3.16667,0.90689 3.16667,-0.25 0,-0.55 -0.53601,-1 -1.19113,-1 -0.65512,0 -0.31762,-0.66069 0.75,-1.4682 1.89423,-1.43272 1.88726,-1.46896 -0.28855,-1.5 -1.57383,-0.0224 -2.82175,-1.19236 -4.24256,-3.97738 -1.23033,-2.41166 -1.627,-4.18407 -1.02032,-4.55902 1.43928,-0.88952 2.7882,0.20874 4.62935,3.76912 1.694,3.27584 3.77425,5.73548 4.8508,5.73548 0.34674,0 0.35233,-0.45 0.0124,-1 -0.33992,-0.55 -0.0933,-1 0.54797,-1 0.6413,0 0.90045,0.69203 0.57588,1.53785 -0.32457,0.84582 0.002,1.76519 0.72634,2.04304 C 824.78293,314.13068 825.18838,317 823.83333,317 823.375,317 823,316.37314 823,315.60699 c 0,-1.44118 -2.8855,-3.05482 -3.80979,-2.13053 -0.28795,0.28795 -0.0669,0.52354 0.49125,0.52354 1.58468,0 4.81712,7.90142 3.69251,9.02603 -0.61291,0.61291 -1.57654,0.34283 -2.66683,-0.74746 z m -1.8972,-3.02857 c -0.20231,-1.05144 -1.31247,-1.79927 -2.78114,-1.87343 -1.34443,-0.0679 -2.61341,-0.63039 -2.81994,-1.25 C 813.00232,315.50696 811.97083,315 810.91667,315 809.82959,315 809,314.31024 809,313.40638 c 0,-0.87649 -0.89494,-1.82765 -1.98875,-2.11369 -1.09382,-0.28604 -1.79851,-0.8279 -1.56599,-1.20413 0.23253,-0.37623 0.0283,-1.32232 -0.45383,-2.10242 -0.68171,-1.10304 -1.10545,-0.81645 -1.90596,1.28906 -1.32481,3.48451 -0.47942,5.58782 2.55171,6.34859 1.76872,0.44392 2.1436,0.93542 1.39837,1.83337 -0.56001,0.67477 -0.7221,1.52295 -0.36021,1.88485 1.16451,1.16451 2.32466,0.7027 2.32466,-0.92534 0,-0.87084 0.5625,-1.37709 1.25,-1.125 0.6875,0.25208 1.1,1.07708 0.91667,1.83333 -0.18334,0.75625 -0.0424,1.08403 0.31326,0.7284 0.35563,-0.35563 1.85563,-0.2818 3.33333,0.16405 4.00794,1.20928 4.36386,1.14093 3.99668,-0.76745 z M 798,321 c -0.90129,-0.58246 -1.02463,-0.97549 -0.30902,-0.98469 0.65504,-0.008 1.4691,0.43469 1.80902,0.98469 0.7673,1.24153 0.42112,1.24153 -1.5,0 z m -58.46857,-13.75 c -0.39839,-7.34397 -0.29584,-13.79723 0.24186,-15.21986 0.69379,-1.8356 1.12225,1.09152 1.66846,11.39844 0.40422,7.62756 0.96833,14.4765 1.25358,15.21986 0.29322,0.7641 -0.13135,1.35156 -0.9768,1.35156 -1.21291,0 -1.62613,-2.40891 -2.1871,-12.75 z m 8.48388,-8.5 c 0.009,-11.99209 0.43764,-21.9035 0.98469,-22.75 0.64744,-1.00185 0.97446,4.01397 0.98469,15.10331 0.008,9.13182 0.30442,19.36932 0.65777,22.75 0.55341,5.29477 0.41481,6.14669 -1,6.14669 -1.47223,0 -1.64087,-2.20241 -1.62715,-21.25 z M 595,309.62689 v -7.44155 l 5.14211,-4.6232 c 2.82817,-2.54277 7.89067,-6.14467 11.25,-8.00423 C 617.87108,285.97147 629.57453,282 633.66435,282 c 1.34953,0 2.21961,-0.37874 1.93351,-0.84165 -0.41248,-0.66742 8.32078,-7.94012 22.05011,-18.36243 1.52167,-1.15514 5.35775,-1.86649 5.33068,-0.9885 -0.0117,0.38092 -1.76974,1.92907 -3.90665,3.44033 -2.13691,1.51127 -7.14475,5.47103 -11.12853,8.79948 -3.98377,3.32845 -7.83637,5.82411 -8.56132,5.54592 -0.72496,-0.27819 -1.57002,-0.0982 -1.87791,0.4 -0.62979,1.01901 2.75045,1.6525 13.02055,2.44018 3.86364,0.29632 9.8214,1.63475 13.23946,2.97428 3.41807,1.33953 6.43776,2.07454 6.71043,1.63336 1.21345,-1.96341 18.64053,-13.0878 19.58675,-12.503 0.58034,0.35867 -3.31291,3.62228 -8.65167,7.25248 -9.68327,6.58432 -9.70107,6.60412 -7.33375,8.15495 1.3052,0.85503 4.36089,3.06287 6.79043,4.9063 l 4.41734,3.3517 9.50151,-9.50151 9.50151,-9.50151 -6.8934,-5.07472 c -14.95514,-11.00954 -31.63045,-16.94314 -50.10287,-17.82817 -18.45356,-0.88412 -30.47785,1.54325 -45.54053,9.19337 l -6.75,3.42822 v -5.44269 -5.4427 l 4.75,-2.40026 c 23.75033,-12.0015 58.17821,-12.30091 83.70185,-0.72793 9.09819,4.12531 24.99017,14.80778 30.14184,20.2611 l 4.09368,4.3334 -16.32071,15.87134 -16.32072,15.87133 -5.58323,-5.10276 c -12.15477,-11.10877 -29.43219,-16.57742 -45.03997,-14.25606 -12.42685,1.84827 -21.29088,6.59818 -31.12486,16.67869 L 595,317.06844 Z M 793,312.5 c 0,-0.825 0.40186,-1.5 0.89301,-1.5 0.49116,0 1.15203,0.675 1.46862,1.5 0.35062,0.91371 0.002,1.5 -0.89301,1.5 C 793.66088,314 793,313.325 793,312.5 Z m -177.13922,-1.54532 c 2.57082,-2.12858 3.73739,-2.41387 4.54265,-1.11094 0.2868,0.46406 -1.14914,1.34367 -3.19098,1.95469 L 613.5,312.90937 Z M 546.75,311.33772 c 0.6875,-0.27741 1.8125,-0.27741 2.5,0 0.6875,0.27741 0.125,0.50439 -1.25,0.50439 -1.375,0 -1.9375,-0.22698 -1.25,-0.50439 z M 793,307.9096 c 0,-0.5652 -0.45,-0.74952 -1,-0.4096 -0.55,0.33992 -1,-0.0835 -1,-0.94098 0,-1.8923 0.92288,-1.93324 3.27939,-0.14548 1.53809,1.16686 1.57199,1.42951 0.25,1.93681 C 793.68823,308.67313 793,308.4748 793,307.9096 Z m -33.52956,-4.00274 c -1.01693,-3.20407 0.52815,-38.15803 1.75297,-39.65686 2.10411,-2.57483 2.32679,-0.99808 1.15931,8.20898 -0.65968,5.20244 -1.23077,14.71755 -1.2691,21.1447 -0.0718,12.04059 -0.41291,14.17942 -1.64318,10.30318 z m 114.60851,-0.49019 c 0.048,-1.16495 0.28494,-1.4019 0.60416,-0.60417 0.28887,0.72187 0.25335,1.58438 -0.0789,1.91667 -0.33229,0.33229 -0.56864,-0.25834 -0.52522,-1.3125 z M 796.61666,300.75 c -0.489,-1.78437 -0.80478,-1.95775 -1.52588,-0.83782 -0.77268,1.20003 -1.14826,1.1732 -2.50003,-0.17857 C 790.4212,297.56406 790.58674,297 793.39301,297 c 1.31616,0 2.67163,0.72605 3.01215,1.61345 0.41235,1.07456 1.33709,1.42571 2.76866,1.05134 C 801.5034,299.0556 805,300.4782 805,302.03518 805,302.56583 804.07344,303 802.94098,303 c -1.13246,0 -1.7809,-0.45 -1.44098,-1 0.33992,-0.55 -0.0835,-1 -0.94098,-1 -0.85746,0 -1.55902,0.45 -1.55902,1 0,1.91381 -1.77083,0.98505 -2.38334,-1.25 z M 808,302.60699 c 0,-0.21616 0.69837,-0.661 1.55194,-0.98855 0.88992,-0.34149 1.29132,-0.17385 0.94098,0.39301 C 809.90566,302.96166 808,303.4169 808,302.60699 Z M 875.25218,296.5 c 0.0111,-2.2 0.21589,-2.98225 0.45508,-1.73834 0.23919,1.24391 0.23011,3.04391 -0.0202,4 -0.25029,0.95609 -0.446,-0.0617 -0.4349,-2.26166 z M 807,295 c -1.35967,-2.2 -2.84246,-4 -3.29508,-4 -0.45263,0 -0.52221,0.48662 -0.15463,1.08138 0.4243,0.68652 -0.19314,0.96038 -1.69098,0.75 -1.70877,-0.24001 -2.3243,0.13143 -2.23234,1.34709 0.0992,1.31183 -0.33764,1.50183 -2,0.8698 -1.16983,-0.44477 -2.50197,-0.82508 -2.9603,-0.84514 -0.45834,-0.02 -1.13334,-0.34296 -1.5,-0.71758 -0.36667,-0.37461 0.45833,-0.52461 1.83333,-0.33333 1.60404,0.22314 2.4104,-0.1002 2.25,-0.90222 -0.14768,-0.7384 0.87552,-1.29487 2.5,-1.35963 1.5125,-0.0603 4.22778,-0.2334 6.03395,-0.38469 2.76289,-0.23142 3.52804,0.19696 4.82235,2.69989 1.48241,2.86666 1.3112,5.79443 -0.33885,5.79443 -0.43742,0 -1.90778,-1.8 -3.26745,-4 z m -5.1875,1.31689 c 0.72187,-0.28887 1.58438,-0.25335 1.91667,0.0789 0.33229,0.33229 -0.25834,0.56864 -1.3125,0.52522 -1.16495,-0.048 -1.4019,-0.28494 -0.60417,-0.60416 z M 595.00669,293.75 c 0.009,-1.63122 13.07503,-8.65004 14.88251,-7.99443 0.80678,0.29264 1.11437,0.0592 0.73368,-0.55674 -0.36053,-0.58335 -0.27316,-1.29693 0.19414,-1.58574 0.46731,-0.28881 0.84965,0.14548 0.84965,0.96509 0,0.82027 -3.57006,3.49787 -7.94119,5.95602 -8.88752,4.99799 -8.72801,4.93915 -8.71879,3.2158 z M 810,289 c 0,-0.55 0.45,-1 1,-1 0.55,0 1,0.45 1,1 0,0.55 -0.45,1 -1,1 -0.55,0 -1,-0.45 -1,-1 z m -196.66667,-5.45601 c 0,-0.80081 0.38234,-1.21971 0.84965,-0.9309 0.4673,0.28881 0.59075,0.94401 0.27431,1.45601 -0.80862,1.30838 -1.12396,1.16106 -1.12396,-0.52511 z M 595,281.58771 c 0,-1.28145 2.07846,-2.54112 4.25,-2.57575 0.4125,-0.007 1.63979,-0.90175 2.72732,-1.98928 1.20993,-1.20993 2.63192,-1.72612 3.66404,-1.33006 1.05624,0.40532 1.4424,0.25192 1.03307,-0.41038 -0.58257,-0.94263 2.20844,-3.32171 14.32557,-12.21119 2.01699,-1.47972 2.91847,-1.82691 2.12756,-0.81937 C 622.37271,263.21325 622.09031,264 622.5,264 c 2.71319,0 -14.14377,12.23492 -23.25,16.87504 -3.38959,1.72718 -4.25,1.87146 -4.25,0.71267 z m 23.48888,-0.56972 c 0.63931,-1.03443 0.38329,-1.18418 -1.07484,-0.62868 -2.39263,0.91151 -1.64334,0.23433 6.58596,-5.95212 3.575,-2.68754 8.58938,-6.82693 11.14307,-9.19864 3.77158,-3.5028 8.85693,-6.26179 8.85693,-4.8052 0,0.17519 -3.76919,3.63685 -8.37597,7.69259 -9.09426,8.00642 -18.47995,15.06798 -17.13515,12.89205 z M 636.5,266 c 0.99549,-1.1 1.58498,-2 1.30998,-2 -0.275,0 -1.31449,0.9 -2.30998,2 -0.99549,1.1 -1.58498,2 -1.30998,2 0.275,0 1.31449,-0.9 2.30998,-2 z m 23.92407,14.31635 c 0.30911,-2.10605 18.26586,-13.37256 20.15688,-12.64691 1.50584,0.57784 -11.87854,9.57559 -14.33095,9.63408 -0.6875,0.0164 -1.25,0.35306 -1.25,0.74814 0,0.39507 -1.08263,1.42769 -2.40585,2.29469 -2.19757,1.43991 -2.38543,1.43731 -2.17008,-0.03 z M 772.75,277.42263 c -1.07352,-1.08205 -0.89908,-14.63847 0.21094,-16.39367 1.74034,-2.75187 2.12965,-0.28861 1.33365,8.43826 -0.43702,4.79126 -1.13209,8.37119 -1.54459,7.95541 z m 113.65988,-10.24794 c -2.08646,-2.52384 -2.08679,-2.53888 -0.19144,-8.60148 9.94258,-31.80297 -8.57466,-68.85818 -39.7739,-79.59229 C 843.27784,177.89141 840.53235,177 840.34345,177 c -0.1889,0 -0.35034,7.3125 -0.35876,16.25 -0.008,8.9375 -0.34592,16.74513 -0.75,17.3503 -1.08843,1.63007 -4.81486,3.3997 -7.15899,3.3997 -1.55854,0 -2.7596,1.55222 -4.96554,6.41732 -2.2235,4.90383 -3.46192,6.49578 -5.251,6.75 -1.96897,0.27978 -2.45094,1.10331 -3.03109,5.17905 -0.80582,5.66113 -4.37602,11.47845 -8.45204,13.77184 -2.66332,1.49853 -3.07919,1.49229 -5.62294,-0.0845 l -2.74691,-1.70267 3.66852,-2.41554 c 4.78344,-3.14967 7.23539,-6.58665 7.98225,-11.18899 0.58232,-3.5884 0.49662,-3.72655 -2.31148,-3.72655 -2.59376,0 -3.27061,-0.7187 -6.1215,-6.5 -2.69611,-5.46743 -3.61114,-6.5 -5.76009,-6.5 -1.40513,0 -3.65933,-1.10455 -5.00933,-2.45455 L 792,209.09091 V 187.04545 165 h -14 -14 v -9.5 -9.5 h 52 52 v 7.91821 c 0,4.35502 0.27314,8.63002 0.60699,9.5 C 869.14348,164.8163 867.51023,165 854.54363,165 h -14.67035 l 0.31336,3.14218 c 0.28877,2.89559 0.73915,3.25065 5.73904,4.52446 15.62105,3.97974 33.22509,18.78995 40.81009,34.33336 5.90016,12.09079 7.58175,19.34149 7.65338,33 0.0604,11.51755 -1.18484,19.08875 -4.29294,26.10148 L 888.5,269.70296 Z M 831.75,207.36971 c 1.2375,-0.33163 2.25,-1.27427 2.25,-2.09475 0,-1.04646 -0.67165,-1.32443 -2.25,-0.93118 -1.2375,0.30832 -4.1625,0.86462 -6.5,1.23621 -2.3375,0.3716 -4.25,1.06811 -4.25,1.54782 0,0.98942 7.34397,1.15468 10.75,0.2419 z M 817,202.1461 c 14.33942,-3.31418 16.53971,-4.08092 16.80326,-5.85552 0.29307,-1.97334 -0.25322,-1.9153 -16.2487,1.72623 C 798.13049,202.43889 798,202.48194 798,204.46862 c 0,2.05594 0.11831,2.04148 19,-2.32252 z m 0.80214,-9.66225 C 826.21832,190.56773 833.30582,189 833.55214,189 833.79846,189 834,188.1 834,187 c 0,-1.1 -0.23352,-2 -0.51893,-2 -0.70635,0 -31.5393,6.95849 -33.73107,7.61255 -0.9625,0.28722 -1.75,1.40047 -1.75,2.47389 0,1.51586 0.50242,1.83215 2.25,1.41646 1.2375,-0.29437 9.13596,-2.10294 17.55214,-4.01905 z m 0.44568,-9.57899 c 13.0312,-2.8175 15.7482,-3.70675 15.75,-5.15486 0.001,-0.9625 -0.63465,-1.75 -1.413,-1.75 -1.38697,0 -25.17328,5.22637 -31.08482,6.83001 -3.7302,1.01191 -4.98857,4.70505 -1.34944,3.96043 1.29219,-0.2644 9.43596,-2.01291 18.09726,-3.88558 z m -0.54129,-9.43793 c 8.3636,-1.90681 15.4511,-3.46693 15.75,-3.46693 0.29891,0 0.54347,-0.9 0.54347,-2 0,-1.1 -0.26466,-2 -0.58813,-2 -0.77309,0 -31.39682,6.91816 -33.66187,7.6045 -0.9625,0.29165 -1.75,1.45244 -1.75,2.57952 0,1.65098 0.43728,1.92297 2.25,1.39954 1.2375,-0.35734 9.09294,-2.20982 17.45653,-4.11663 z M 807,166.54268 l 5.5,-1.37259 -7.25,-0.085 c -5.81558,-0.0682 -7.25,0.21173 -7.25,1.41495 0,1.82378 1.8283,1.83245 9,0.0427 z M 784,263 c 0,-1.1 0.45,-2 1,-2 0.55,0 1,0.9 1,2 0,1.1 -0.45,2 -1,2 -0.55,0 -1,-0.9 -1,-2 z m -159.24144,-0.092 c 0.67325,-0.8756 1.0223,-1.7938 0.77567,-2.04043 -0.24663,-0.24663 0.48314,-0.51859 1.62171,-0.60435 1.13857,-0.0858 1.90676,-0.0628 1.70709,0.0511 -0.19967,0.11386 -1.48028,1.10223 -2.8458,2.19637 -1.50404,1.20513 -2.00022,1.36176 -1.25867,0.39733 z m 79.09324,-6.78152 c -4.75651,-3.09456 -9.14401,-6.66014 -9.75,-7.92352 -1.63729,-3.41345 -1.29923,-9.17146 0.81132,-13.81904 5.28898,-11.6467 22.11062,-14.49432 30.78915,-5.21209 10.34266,11.06213 4.46849,29.52239 -10.20227,32.06183 -2.4319,0.42095 -4.63768,-0.54618 -11.6482,-5.10718 z m 41.75258,-14.35458 C 745.27197,240.10985 745,237.75313 745,236.53472 c 0,-3.76209 -5.8599,-14.17542 -10.16627,-18.06597 -10.21881,-9.23208 -24.70487,-11.70202 -36.05708,-6.14791 -10.9249,5.34506 -18.56911,15.46388 -19.57275,25.90889 -0.4285,4.45947 -0.67697,4.87382 -2.58894,4.31731 -8.06239,-2.34668 -18.0555,-4.5346 -23.39044,-5.12116 -5.80381,-0.63812 -6.22585,-0.84916 -5.61522,-2.80793 0.74575,-2.39219 2.18816,-3.57754 4.3907,-3.60821 0.825,-0.0115 3.19334,-0.49115 5.26298,-1.06591 3.35022,-0.93038 4.08952,-1.76516 6.7398,-7.61023 l 2.97681,-6.56521 -3.58088,-5.80149 -3.58088,-5.80148 2.28314,-3.08812 c 1.25573,-1.69846 4.37807,-4.85458 6.93853,-7.0136 l 4.65539,-3.92548 5.70219,4.04518 5.70219,4.04518 6.20037,-2.74796 c 8.23765,-3.65087 8.18504,-3.59521 9.65901,-10.2188 0.70521,-3.169 1.79051,-6.09243 2.41178,-6.49651 0.62126,-0.40408 4.58493,-0.74158 8.80814,-0.75 8.29163,-0.0165 10.77131,1.19303 10.87787,5.30612 0.0311,1.19821 0.59355,3.67634 1.25,5.50695 1.00997,2.81641 2.26778,3.77859 8.17723,6.25528 l 6.98368,2.9269 5.08951,-3.50528 c 2.79923,-1.9279 5.6616,-3.50528 6.36082,-3.50528 1.56943,0 13.0833,10.93526 13.07975,12.42245 -0.001,0.59265 -1.53696,3.62209 -3.41232,6.73208 l -3.40976,5.65453 2.41233,4.76495 c 1.32677,2.62072 2.41232,5.34785 2.41232,6.06028 0,1.67102 2.49321,2.93006 7.5,3.7874 6.73322,1.15297 7.5,1.57681 7.5,4.1457 0,2.19878 -0.41236,2.43261 -4.2899,2.43261 -5.34662,0 -14.5994,2.35873 -21.35572,5.44402 l -5.14562,2.34976 z M 581.94618,236.349 c -2.01334,-0.35002 -3.89583,-2.70902 -8.89495,-11.14649 -3.48762,-5.88638 -9.2009,-15.50239 -12.69618,-21.36891 L 554,193.1672 v -23.64397 -23.64396 l 3.75,0.31036 3.75,0.31037 0.27029,20.75 0.27029,20.75 H 567.02029 572 v -20.39453 -20.39454 l 23.75,-0.41996 c 13.0625,-0.23098 24.11149,-0.11946 24.55331,0.24784 0.44181,0.36729 0.66681,10.97131 0.5,23.5645 L 620.5,193.5 608.23969,213.96031 c -6.74318,11.25318 -12.59318,20.78793 -13,21.18833 -0.96681,0.95156 -10.02165,1.76918 -13.29351,1.20036 z m -1.37664,-24.3341 C 578.05629,203.66625 576,196.64755 576,196.41777 576,196.188 573.51862,196 570.48581,196 h -5.51419 l 2.40661,3.75 c 1.32363,2.0625 5.65294,9.28957 9.62069,16.06016 3.96776,6.77059 7.42246,12.10179 7.67713,11.84713 0.25466,-0.25467 -1.59327,-7.29374 -4.10651,-15.64239 z m 0.69949,-15.67084 c -0.67703,-0.27392 -2.02703,-0.29059 -3,-0.0371 -0.97297,0.25354 -0.41903,0.47766 1.23097,0.49804 1.65,0.0204 2.44606,-0.18706 1.76903,-0.46099 z M 596.68933,149.25 c -0.25153,-0.9625 -0.45733,-0.175 -0.45733,1.75 0,1.925 0.2058,2.7125 0.45733,1.75 0.25152,-0.9625 0.25152,-2.5375 0,-3.5 z"
       id="path1" />
  </g>
</svg>
